<svg xmlns="http://www.w3.org/2000/svg" viewBox="0 0 191.69 84.3"><g id="Capa_2" data-name="Capa 2"><g id="Capa_1-2" data-name="Capa 1"><path d="M10.11,38.75h-7V12.85H9.79V16A7,7,0,0,1,13,13.16a10,10,0,0,1,4.42-1.05q5.64,0,7.69,4.32a9.16,9.16,0,0,1,8.21-4.32,9.5,9.5,0,0,1,6.66,2.47q2.72,2.47,2.71,7.37v16.8H35.85V23.38a5.32,5.32,0,0,0-1.13-3.56,4.26,4.26,0,0,0-3.45-1.34A4.42,4.42,0,0,0,27.8,20a5.28,5.28,0,0,0-1.32,3.64V38.75H19.53V23.38a5.23,5.23,0,0,0-1.16-3.56A4.28,4.28,0,0,0,15,18.48a4.53,4.53,0,0,0-3.53,1.45,5.25,5.25,0,0,0-1.31,3.66Z"/><path d="M47.91,4.37a4.26,4.26,0,0,1,1.26-3.08A4.12,4.12,0,0,1,52.23,0a4.16,4.16,0,0,1,3.05,1.26,4.25,4.25,0,0,1,1.26,3.11,4.1,4.1,0,0,1-1.26,3,4.33,4.33,0,0,1-6.11,0A4.1,4.1,0,0,1,47.91,4.37Zm7.84,34.38h-7V12.85h7Z"/><path d="M86.92.63V34.06c0,1.72.07,3.29.21,4.69H80.44a15.89,15.89,0,0,1-.26-3,6.51,6.51,0,0,1-2.82,2.63,9.44,9.44,0,0,1-4.44,1,11.79,11.79,0,0,1-9.09-3.87,13.91,13.91,0,0,1-3.55-9.76,13.91,13.91,0,0,1,3.5-9.64,11.48,11.48,0,0,1,8.93-3.9c3.72,0,6.16,1.08,7.31,3.22V.63ZM67.34,25.75a7.68,7.68,0,0,0,1.79,5.39,5.94,5.94,0,0,0,4.63,2,5.88,5.88,0,0,0,4.58-2,7.88,7.88,0,0,0,1.79-5.43,7.48,7.48,0,0,0-1.79-5.29,6.42,6.42,0,0,0-9.19,0A7.49,7.49,0,0,0,67.34,25.75Z"/><path d="M110.35,38.75a14.8,14.8,0,0,1-.21-2.79,6.14,6.14,0,0,1-3,2.6,10.23,10.23,0,0,1-4.18.87,9.22,9.22,0,0,1-7.22-2.92,10.51,10.51,0,0,1-2.63-7.29V12.85h7v15a5.65,5.65,0,0,0,1.22,3.76A4.31,4.31,0,0,0,104.87,33a4.67,4.67,0,0,0,3.58-1.39,5.19,5.19,0,0,0,1.32-3.72v-15h7V34.06a41.06,41.06,0,0,0,.26,4.69Z"/><path d="M17.79,57.61h7.38L30.75,74.3l4.79-16.69h7l-8.11,25.9h-7L21.32,65.82l-6,17.69H8.27L0,57.61H7.37l4.79,16.63Z"/><path d="M62.55,74.35l5.84,1.74A11.16,11.16,0,0,1,64.26,82,12.37,12.37,0,0,1,56.6,84.3a13.15,13.15,0,0,1-9.48-3.77c-2.6-2.5-3.9-5.87-3.9-10.08A13.38,13.38,0,0,1,47,60.63a12.21,12.21,0,0,1,9-3.81q6,0,9.4,3.58c2.27,2.38,3.4,5.67,3.4,9.84,0,.28,0,.6,0,1s0,.63,0,.84l-.06.37H50.12a5.74,5.74,0,0,0,2,4.21,6.57,6.57,0,0,0,4.53,1.69Q61.12,78.3,62.55,74.35ZM50.28,67.61H61.86A5.38,5.38,0,0,0,60.31,64a5.71,5.71,0,0,0-4.24-1.48A5.59,5.59,0,0,0,52,64.08,5.33,5.33,0,0,0,50.28,67.61Z"/><path d="M71.71,76.45a6.91,6.91,0,0,1,2.15-5.31,10.24,10.24,0,0,1,5.59-2.53l6.37-1c1.29-.17,1.94-.79,1.94-1.84a3,3,0,0,0-1.13-2.42,5.82,5.82,0,0,0-6.74.26,4.5,4.5,0,0,0-1.44,3l-6.22-1.31a9.11,9.11,0,0,1,3.32-5.95,11.41,11.41,0,0,1,7.79-2.58q5.79,0,8.53,2.76a9.63,9.63,0,0,1,2.74,7.08V79.4a23.9,23.9,0,0,0,.31,4.11H88.5a15,15,0,0,1-.26-3.11q-2.47,3.85-7.64,3.85a9,9,0,0,1-6.45-2.32A7.29,7.29,0,0,1,71.71,76.45ZM82.08,79a6,6,0,0,0,4.08-1.39q1.61-1.4,1.6-4.61V71.87l-5.84.9c-2.14.32-3.21,1.4-3.21,3.26a2.88,2.88,0,0,0,.89,2.14A3.45,3.45,0,0,0,82.08,79Z"/><path d="M109.14,49.87v7.74h5.21v6.21h-5.21V74.66a3,3,0,0,0,.74,2.32,3.29,3.29,0,0,0,2.31.69,7.87,7.87,0,0,0,2.16-.22v5.8a10.47,10.47,0,0,1-3.95.63,8.29,8.29,0,0,1-6-2.13,7.8,7.8,0,0,1-2.21-5.87V63.82H97.5V57.61h1.32a3.81,3.81,0,0,0,3-1.13,4.25,4.25,0,0,0,1-3V49.87Z"/><path d="M125,68.29V83.51h-7V45.39h7V59.77q2.37-2.85,7-2.85c3.16,0,5.55,1,7.19,2.87a11,11,0,0,1,2.44,7.4V83.51h-7V68.4a5.66,5.66,0,0,0-1.18-3.74,5.1,5.1,0,0,0-7.06,0A5.62,5.62,0,0,0,125,68.29Z"/><path d="M165.15,74.35,171,76.09A11.16,11.16,0,0,1,166.87,82a12.37,12.37,0,0,1-7.66,2.32,13.13,13.13,0,0,1-9.48-3.77c-2.6-2.5-3.9-5.87-3.9-10.08a13.38,13.38,0,0,1,3.79-9.82,12.21,12.21,0,0,1,8.95-3.81q6,0,9.4,3.58c2.27,2.38,3.4,5.67,3.4,9.84,0,.28,0,.6,0,1s0,.63,0,.84l-.05.37H152.73a5.74,5.74,0,0,0,2,4.21,6.55,6.55,0,0,0,4.53,1.69C162.24,78.3,164.21,77,165.15,74.35Zm-12.26-6.74h11.58A5.38,5.38,0,0,0,162.92,64a5.71,5.71,0,0,0-4.24-1.48,5.56,5.56,0,0,0-4.11,1.58A5.33,5.33,0,0,0,152.89,67.61Z"/><path d="M191.69,57.5v7.06a10.71,10.71,0,0,0-2.11-.21,6.83,6.83,0,0,0-4.84,1.71q-1.85,1.71-1.84,5.6V83.51h-7V57.61h6.79v3.84q1.89-4.05,7.37-4.05C190.44,57.4,191,57.43,191.69,57.5Z"/></g></g></svg>